# xmcd CD database file
#
# Track frame offsets:
#	150
#	35981
#	83919
#	109451
#	132232
#	210216
#	248689
#
# Disc length: 3631 seconds
#
# Revision: 0
# Processed by: cddbd v1.5.1PL0 Copyright (c) Steve Scherf et al.
# Submitted via: CDex 1.50
#
DISCID=5d0e2d07
DTITLE=Arden Wilken - Equilibrio e armonia interiore
DYEAR=1900
DGENRE=New Age
TTITLE0=Violet flame
TTITLE1=Resting
TTITLE2=Inner sun rose
TTITLE3=Inner sun silver
TTITLE4=Intuitions
TTITLE5=Gentler heart
TTITLE6=Aligning
EXTD=
EXTT0=
EXTT1=
EXTT2=
EXTT3=
EXTT4=
EXTT5=
EXTT6=
PLAYORDER=
